<?xml version="1.0" standalone="no"?>
<!DOCTYPE svg PUBLIC "-//W3C//DTD SVG 1.1//EN" "http://www.w3.org/Graphics/SVG/1.1/DTD/svg11.dtd" >
<svg xmlns="http://www.w3.org/2000/svg">
<metadata>
Created by FontForge 20120731 at Fri Dec 16 14:21:48 2016
 By admin
</metadata>
<defs>
<font id="iconfont" horiz-adv-x="1024" >
  <font-face 
    font-family="iconfont"
    font-weight="500"
    font-stretch="normal"
    units-per-em="1024"
    panose-1="2 0 6 3 0 0 0 0 0 0"
    ascent="896"
    descent="-128"
    x-height="792"
    bbox="0 -180 1160 896"
    underline-thickness="0"
    underline-position="0"
    unicode-range="U+0078-E936"
  />
<missing-glyph 
 />
    <glyph glyph-name=".notdef" 
 />
    <glyph glyph-name=".notdef" 
 />
    <glyph glyph-name=".null" horiz-adv-x="0" 
 />
    <glyph glyph-name="nonmarkingreturn" horiz-adv-x="341" 
 />
    <glyph glyph-name="x" unicode="x" horiz-adv-x="1001" 
d="M281 543q-27 -1 -53 -1h-83q-18 0 -36.5 -6t-32.5 -18.5t-23 -32t-9 -45.5v-76h912v41q0 16 -0.5 30t-0.5 18q0 13 -5 29t-17 29.5t-31.5 22.5t-49.5 9h-133v-97h-438v97zM955 310v-52q0 -23 0.5 -52t0.5 -58t-10.5 -47.5t-26 -30t-33 -16t-31.5 -4.5q-14 -1 -29.5 -0.5
t-29.5 0.5h-32l-45 128h-439l-44 -128h-29h-34q-20 0 -45 1q-25 0 -41 9.5t-25.5 23t-13.5 29.5t-4 30v167h911zM163 247q-12 0 -21 -8.5t-9 -21.5t9 -21.5t21 -8.5q13 0 22 8.5t9 21.5t-9 21.5t-22 8.5zM316 123q-8 -26 -14 -48q-5 -19 -10.5 -37t-7.5 -25t-3 -15t1 -14.5
t9.5 -10.5t21.5 -4h37h67h81h80h64h36q23 0 34 12t2 38q-5 13 -9.5 30.5t-9.5 34.5q-5 19 -11 39h-368zM336 498v228q0 11 2.5 23t10 21.5t20.5 15.5t34 6h188q31 0 51.5 -14.5t20.5 -52.5v-227h-327z" />
    <glyph glyph-name="new" unicode="&#xe747;" 
d="M1012 300l-134 94l67 146l-165 17l-18 159l-152 -64l-98 128l-98 -128l-152 64l-18 -159l-165 -17l67 -146l-134 -94l134 -94l-67 -146l165 -17l18 -159l152 64l98 -128l98 128l152 -64l18 159l165 17l-67 146zM372 180h-46l-41 77q-21 38 -34 71l-1 -1q2 -40 2 -87v-60
h-40v200h51l40 -73q18 -33 32 -69h1q-4 34 -4 84v58h40v-200zM572 180h-160v200h155v-37h-98v-42h92v-36h-92v-48h103v-37zM772 180h-39l-13 86q-5 35 -8 62v0q-5 -38 -9 -62l-15 -86h-39l-37 200h38l12 -82q4 -27 9 -70h1q2 25 10 70l13 82h38l12 -84q5 -32 9 -67v0
q1 13 9 69l13 82h36z" />
    <glyph glyph-name="sousuo" unicode="&#xe6ae;" 
d="M826 30l-125 125q56 79 56 177q0 129 -91 219.5t-219.5 90.5t-219.5 -90.5t-91 -219.5t91 -219.5t220 -90.5q98 0 177 55l125 -125q16 -16 38.5 -16t38.5 16t16 39t-16 39v0zM246 332q0 83 59 142t142 59t142 -59t59 -142t-59 -142t-142 -59t-142 59t-59 142z" />
    <glyph glyph-name="xingbie" unicode="&#xe668;" 
d="M354 255q71 10 119 64.5t48 127.5q0 81 -57 138t-137.5 57t-137.5 -57t-57 -138q0 -73 48 -127.5t120 -64.5v-94h-126v-54h126v-126h54v126h126v54h-126v94zM186 447q0 58 41.5 99.5t99.5 41.5t99 -41.5t41 -99.5t-41 -99t-99 -41t-99.5 41t-41.5 99zM503 151
q0 -81 57 -138t137.5 -57t137.5 57t57 138q0 73 -48 127.5t-120 64.5v198l51 -52l38 38l-89 90v0v0l-27 27l-116 -117l38 -38l51 52v-198q-71 -10 -119 -64.5t-48 -127.5zM838 151q0 -58 -41 -99.5t-99.5 -41.5t-99.5 41t-41 99.5t41 99.5t99 41t99.5 -41t41.5 -99z" />
    <glyph glyph-name="guanbi" unicode="&#xe60e;" 
d="M761 97l-203 203l203 203l-46 46l-203 -203l-203 203l-46 -46l203 -203l-203 -203l46 -46l203 203l203 -203z" />
    <glyph glyph-name="ditu" unicode="&#xe622;" 
d="M506 110l-16 14q-28 26 -50 49q-62 65 -110 140q-72 114 -69 197q5 100 76 168q72 70 175 70q51 0 98.5 -19.5t83.5 -55.5q69 -69 68 -166v-10q-1 -13 -4 -27q-12 -68 -50 -132q-25 -41 -69 -92q-38 -47 -72 -77q-12 -13 -20 -20zM512 707q-86 0 -146 -58t-64 -141
q-3 -70 63 -173q45 -71 105 -134q17 -18 35 -35l13 12q8 8 21 20v1q32 28 68 73h1q41 49 65 87q34 57 45 118v1q2 11 3 22v0v8q1 79 -56 137q-63 62 -153 62zM512 410q-43 0 -73.5 29.5t-30.5 71t30.5 70.5t73.5 29t73 -29t30 -70.5t-30 -71t-73 -29.5zM512 569
q-26 0 -44.5 -17t-18.5 -41.5t18.5 -42t44.5 -17.5t44 17.5t18 42t-18 41.5t-44 17zM947 476l-137 -48l12 -39l97 34v-450l-272 -71l-286 77l-256 -62v439l99 67l-27 31l-113 -75v0v0v-509h41v0l256 64l286 -81l313 90v0v499z" />
    <glyph glyph-name="qiche" unicode="&#xe651;" 
d="M949 327q-2 36 -24 66.5t-56 45.5l-41 191q-11 53 -57 90t-99 37h-321q-53 0 -99 -37t-57 -90l-41 -191q-34 -15 -56 -45.5t-24 -66.5l-9 -123q-3 -39 17 -72t56 -47q8 -32 34 -52.5t60 -20.5q31 0 56 17.5t35 46.5h377q10 -29 35 -46.5t56 -17.5q34 0 60 20.5t35 52.5
q35 14 55 47t18 72zM855 132q-20 -4 -21 -25q-1 -17 -13.5 -29t-29.5 -12q-16 0 -28.5 11.5t-13.5 27.5q-1 11 -9 18t-18 7h-421q-10 0 -18 -7t-9 -18q-1 -16 -13.5 -27.5t-28.5 -11.5q-17 0 -29.5 12t-13.5 29q-1 21 -21 25q-23 6 -37 25t-12 43l9 123q2 24 18.5 43.5
t40.5 26.5q17 5 19 23v5l1 2l41 196q8 34 38.5 58.5t64.5 24.5h321q34 0 64.5 -24.5t38.5 -58.5l41 -196l1 -2v-5q2 -18 19 -23q24 -7 40.5 -26.5t18.5 -43.5l9 -123q2 -24 -12 -43t-37 -25zM301 413h421q16 0 24 10q9 11 7 26v2l-33 144q-4 17 -18.5 29.5t-31.5 12.5h-317
q-17 0 -31.5 -12.5t-18.5 -29.5l-33 -144v-2q-2 -15 6 -25q9 -11 25 -11zM357 582h309l27 -114h-363zM268 320q-26 0 -44 -18.5t-18 -44t18 -43.5t44 -18t44 18t18 43.5t-18 44t-44 18.5zM755.5 320q-25.5 0 -44 -18.5t-18.5 -44t18.5 -43.5t44 -18t43.5 18t18 43.5t-18 44
t-43.5 18.5z" />
    <glyph glyph-name="xinzi" unicode="&#xe610;" 
d="M679 529l-122 -208h96v-46h-112v-64h112v-46h-112v-92h-58v92h-116v46h116v64h-116v46h99l-121 208h65q85 -155 103 -197h1q7 17 34 69l69 128h62zM541 72h-58v92h-117v48h117v62h-117v47h99l-121 208h66h1q84 -154 103 -196v0q6 17 34 68l69 128h63l-1 -1l-121 -207h96
v-47h-113v-62h113v-48h-113v-92zM484 73h56v92h113v46h-113v64h113v45h-97v1l122 207h-60l-69 -127q-28 -52 -34 -69v0h-2v0q-19 42 -103 196h-64l121 -208h-100v-45h117v-64h-117v-46h117v-92zM960 300.5q0 -91.5 -35.5 -174.5t-95.5 -143t-143 -95.5t-174 -35.5t-174 35.5
t-143 95.5t-95.5 143t-35.5 174.5t35.5 174.5t95.5 143t143 95.5t174 35.5t174 -35.5t143 -95.5t95.5 -143t35.5 -174.5zM512 685q-104 0 -192.5 -51.5t-140 -140t-51.5 -193t51.5 -193t140 -139.5t192.5 -51t192.5 51t140 139.5t51.5 193t-51.5 193t-140 140t-192.5 51.5z
M512 -148q-91 0 -175 35q-80 34 -142.5 96t-96.5 143q-35 83 -35 174.5t35 174.5q34 81 96.5 143t142.5 96q84 36 175 36t175 -36q80 -34 142.5 -96t96.5 -143q35 -83 35 -174.5t-35 -174.5q-34 -81 -96.5 -143t-142.5 -96q-84 -35 -175 -35zM512 749q-91 0 -174 -35.5
t-143 -95.5t-95.5 -143t-35.5 -174t35.5 -174t95.5 -143t143 -95.5t174 -35.5t174 35.5t143 95.5t95.5 143t35.5 174t-35.5 174t-95.5 143t-143 95.5t-174 35.5zM512 -84q-78 0 -150 30q-69 30 -122 83t-82 122q-31 71 -31 149.5t31 149.5q29 69 82 122.5t122 82.5
q72 30 150 30t150 -30q69 -29 122 -82.5t82 -122.5q31 -71 31 -149.5t-31 -149.5q-29 -69 -82 -122t-122 -83q-72 -30 -150 -30zM512 684q-104 0 -192.5 -51.5t-139.5 -139.5t-51 -192t51 -192.5t139.5 -140t192.5 -51.5t192.5 51.5t139.5 140t51 192.5t-51 192
t-139.5 139.5t-192.5 51.5z" />
    <glyph glyph-name="dingwei" unicode="&#xe606;" 
d="M515 -167q-21 0 -79.5 72t-118.5 167.5t-107 198t-47 154.5q0 97 47 178.5t128.5 129t177 47.5t177 -47.5t128.5 -129t47 -178.5q0 -51 -47 -153.5t-107.5 -198t-119 -168t-79.5 -72.5zM515.5 740q-129.5 0 -221 -92t-91.5 -221q0 -47 41.5 -138.5t95 -178t105 -151.5
t70.5 -65t70.5 65.5t105 152t95 178t41.5 137.5q0 129 -91 221t-220.5 92zM515.5 277q-60.5 0 -104 43.5t-43.5 104.5t43.5 104.5t104 43.5t103.5 -43.5t43 -104.5t-43 -104.5t-103.5 -43.5zM515.5 521q-38.5 0 -66 -27.5t-27.5 -66.5t27.5 -66.5t66 -27.5t66 27.5
t27.5 66.5t-27.5 66.5t-66 27.5z" />
    <glyph glyph-name="yule" unicode="&#xe64e;" 
d="M604 -54h-374q-19 0 -38.5 4.5t-42 15.5t-40 27t-29 43.5t-11.5 62.5v391h692v-371q1 -7 0 -21.5t-11.5 -46.5t-30.5 -55q-42 -46 -115 -49v-1zM121 438v-339q0 -28 11 -48.5t25 -30t32.5 -15t26.5 -6t14 -0.5h372q31 1 53 13.5t32.5 27t15.5 33.5t6 28t0 17v320h-588z
M788 -151h-746q-11 0 -18.5 7.5t-7.5 18.5t7.5 18.5t18.5 7.5h746q11 0 18.5 -7.5t7.5 -18.5t-7.5 -18.5t-18.5 -7.5zM859 93h-124v52h124q26 0 45 7t28.5 16.5t15.5 22t7 20t1 13.5q2 60 -27 88q-25 25 -66 25v0h-128v52h127q4 1 17.5 0t40.5 -11t46 -29q45 -44 42 -126
q0 -19 -7 -39.5t-22.5 -42t-47 -35t-72.5 -13.5zM245 751h52v-237h-52v237zM389 751h52v-237h-52v237zM533 751h52v-237h-52v237z" />
    <glyph glyph-name="lianjieduanlie" unicode="&#xe6b3;" 
d="M440 487l-117 -114q-9 -10 -9 -23t9.5 -22t22.5 -9t23 9l124 122v32l-53 -52v57zM618 450q13 -3 24.5 4t14.5 19.5t-4 24t-20 14.5l-100 23l-50 -30l74 -17q-22 -13 -29 -17zM338 276l-96 -94q-12 -11 -29 -11t-28 11l-12 11q-12 12 -12 28.5t12 28.5l92 89q40 47 60 109
q-33 6 -66 -3t-58 -34l-97 -94q-40 -40 -40 -95.5t40 -95.5l12 -11q40 -39 97 -39t98 39l97 95q25 25 34.5 58.5t1.5 67.5q-86 -43 -106 -60zM853 583l-133 30q-34 8 -66.5 -0.5t-57.5 -30.5q52 -41 106 -62l129 -30q17 -3 25.5 -17t5.5 -30l-4 -15q-4 -16 -18 -25t-31 -5
l-131 30q-65 8 -122 -10q13 -30 38.5 -52.5t59.5 -30.5l133 -30q56 -12 104.5 17t61.5 84l3 15q13 55 -17 102t-86 60zM377 609l-25 -56l74 -27zM539 646l-40 -24l33 -47zM445 690l-40 2l56 -120z" />
    <glyph glyph-name="redian" unicode="&#xe635;" 
d="M268 347q-14 41 -23 85q-46 -30 -72 -92t-26 -125q0 -100 48.5 -185t132 -134.5t181.5 -49.5q73 0 139 28t117.5 80t79 119.5t27.5 141.5q0 128 -51 216v1q-26 53 -36 120q-117 -41 -95 -220l3 -26l-19 18q-131 127 -117 430q-177 -60 -206 -241q-17 -103 19 -271
q4 -18 5 -26l4 -20l-17 11q-57 33 -94 140v0zM433 154q-2 9 -7 27q-13 53 -20.5 85t-15 85t-6.5 96q2 77 27 134q30 66 93 106l15 9v-17q0 -186 59 -298t164 -118q-8 30 -12 65t-1 73t15 63l10 21l7 -22q4 -11 18 -43q15 -35 24 -58t19.5 -66t10.5 -81v-1v0
q-11 -142 -100 -234q-44 -45 -100 -69q-58 -25 -124 -25q-134 0 -227 93q-93 94 -96 235q-1 28 11 73t23 57l11 10l5 -14q1 -3 4 -11q8 -24 14 -39.5t22 -43t35 -44.5t51 -31.5t71 -16.5v0z" />
    <glyph glyph-name="dizhi" unicode="&#xe619;" 
d="M329 429q39 -58 160 -232l1 -1q12 -16 31 -16q21 0 31 17q158 228 164 235l1 1q34 56 34 120q0 95 -67.5 162t-162.5 67t-162 -67t-67 -162q0 -67 37 -124v0zM520.5 724q70.5 0 120.5 -50t50 -121q0 -46 -24 -89q-3 -4 -26 -37.5t-61 -88t-59 -84.5q-14 21 -52 75
t-63.5 90.5t-29.5 42.5q-28 42 -28 90q1 71 51.5 121.5t121 50.5zM520 425q52 0 89.5 37.5t37.5 89.5t-37.5 89.5t-89.5 37.5t-89.5 -37.5t-37.5 -89.5t37 -89.5t90 -37.5zM520.5 622q28.5 0 48.5 -20.5t20 -48.5q0 -29 -20 -49t-48.5 -20t-48.5 20.5t-20 48.5t20 48.5
t48.5 20.5zM1007 127l-143 275h-118l-46 -59h128l130 -249l3 -2q10 -14 2 -32q-9 -16 -28 -16h-845q-19 0 -28 16q-7 18 4 33l1 1l128 250h145l-48 59h-133l-143 -276q-14 -21 -15.5 -45.5t9.5 -45.5q26 -49 81 -49h845q25 0 46.5 13t33.5 36q22 49 -9 91z" />
    <glyph glyph-name="chuxingcankao" unicode="&#xe618;" horiz-adv-x="1027" 
d="M865 271h35v151h-32h-1h-99v0h-608q-6 0 -11 4q-7 -3 -11 -3v-151h24q15 0 25 -10t10 -25v-2v0q0 -37 25 -62l1 -1q26 -24 60 -24q38 0 61 25q25 25 25 62v2q0 15 9.5 24.5t24.5 9.5v0v0h215q14 0 24 -10t10 -25v-2v0q0 -38 26 -62l1 -1q25 -24 60 -24q38 0 61 25
q26 26 26 62v2q3 15 14 24.5t25 10.5v0v0v0zM743 268v0q15 0 25 -10.5t10 -24.5t-10 -24t-25 -10q-14 0 -24.5 10t-10.5 24t10.5 24.5t24.5 10.5v0zM284 268v0q15 0 25 -10.5t10 -24.5t-10 -24t-25 -10q-14 0 -24 10t-10 24t10 24.5t24 10.5v0zM727 464v0l-84 178h-382
l-85 -178h551v0zM934 202v0h-39q-8 -43 -41 -79v0v0q-45 -45 -111 -45q-62 0 -108 44l-2 3q-33 32 -43 79h-152q-11 -48 -42 -79v0v0q-45 -45 -111 -45q-62 0 -108 43l-1 3q-33 32 -43 79h-29v0q-15 0 -25 9.5t-10 24.5v217v1q0 15 10 25t25 10h9l93 199q8 21 33 21h425
q21 0 31 -19l94 -201h144h1q14 0 24 -10t10 -25v-220v-1q0 -14 -10 -24t-24 -10v0z" />
    <glyph glyph-name="liuzhuanfangshi" unicode="&#xe6a5;" 
d="M221 263q37 -87 117 -140.5t176 -53.5q110 0 196.5 68t112.5 174q3 12 14.5 19t24.5 4t19.5 -14.5t3.5 -24.5q-32 -127 -135.5 -208.5t-235.5 -81.5q-119 0 -216.5 67.5t-139.5 176.5l-14 -29q-6 -12 -18.5 -16.5t-24.5 1t-16 18t1 24.5l51 106q6 13 20 17t27 -4l91 -63
q11 -7 13.5 -20t-5 -24t-20.5 -13.5t-24 4.5zM868 517q-43 107 -139.5 172.5t-214.5 65.5q-132 0 -235.5 -81t-135.5 -207q-3 -13 4 -24.5t19.5 -14.5t24 3.5t14.5 19.5q27 105 113 172.5t196 67.5q99 0 180.5 -56t116.5 -147l-30 16q-12 6 -24.5 2t-19 -16t-2.5 -24.5
t16 -18.5l104 -54q13 -7 26.5 -1.5t18.5 19.5l36 105q4 13 -2 24.5t-18.5 16t-24.5 -1.5t-16 -18z" />
    <glyph glyph-name="iconfontnan" unicode="&#xe60c;" 
d="M825 399l50 287l-291 3l91 -109l-83 -66q-73 58 -167 58q-111 0 -189.5 -78.5t-78.5 -190.5q0 -111 78.5 -189t189.5 -78t189.5 78.5t78.5 188.5q0 80 -43 147l80 64zM425 122q-75 0 -128.5 53t-53.5 128q0 76 53.5 129.5t128.5 53.5q76 0 129 -53.5t53 -129.5
q0 -75 -53 -128t-129 -53z" />
    <glyph glyph-name="qianzaixueyuan" unicode="&#xe634;" 
d="M445 0q-120 9 -196 45.5t-76 74.5q0 36 68 70.5t178 46.5q12 2 20 11t8 21v49q0 17 -14 26q-49 32 -79 93t-30 128q0 61 11.5 105.5t29.5 69.5t44 39.5t48.5 18.5t50 4t49.5 -4t48.5 -18.5t44 -39.5t29.5 -69.5t12 -105.5q0 -90 -50 -162q-7 -10 -4.5 -23t13 -20.5
t23.5 -5t20 12.5q61 88 61 198q0 71 -15 125.5t-39 87t-57.5 53t-66 27.5t-69.5 7t-69 -7t-66 -27.5t-57.5 -53t-39 -87t-15.5 -125.5q0 -79 33.5 -150t90.5 -114v-4q-126 -18 -200 -66t-74 -111q0 -71 91 -121.5t239 -61.5h3q12 0 21 8.5t10 20.5q1 13 -7.5 23t-21.5 11z
M907 322h-362q-16 0 -27 -11t-11 -27v-268q0 -16 11 -27t27 -11h362q16 0 27 11t11 27v268q0 16 -11 27t-27 11zM882 41h-312v218h312v-218zM647 164h95q13 0 22.5 9.5t9.5 22.5t-9.5 22.5t-22.5 9.5h-95q-13 0 -22 -9.5t-9 -22.5t9 -22.5t22 -9.5zM646 70h38q13 0 22.5 9
t9.5 22t-9.5 22.5t-22.5 9.5h-38q-13 0 -22.5 -9.5t-9.5 -22.5t9.5 -22t22.5 -9z" />
    <glyph glyph-name="xueli" unicode="&#xe620;" 
d="M999 617q-2 -10 -2 -12q-15 -54 -69 -67q-26 -7 -75 -18q-6 -1 -6 -8v-122v-122q1 -57 -45 -93q-32 -26 -87 -42q-49 -15 -114 -21q-65 -5 -133 -2q-102 4 -169 26q-53 17 -83 44q-40 35 -39 86v246q0 7 -6 8q-38 8 -75 17q-29 7 -47.5 28t-23.5 50v1v1v19q0 2 1 3
q4 28 22.5 48.5t45.5 27.5q44 10 351 81q9 2 28.5 6.5t29.5 6.5h17q3 0 7 -1t7 -1q43 -11 180.5 -42.5t212.5 -48.5q55 -13 70 -68q0 -2 1 -6.5t1 -6.5v-18zM786 504h-2.5t-2.5 -1q-34 -8 -114.5 -26.5t-123.5 -28.5q-30 -7 -50 -2l-237 54q-4 1 -19 4v-7v-228q0 -21 16 -35
q7 -7 13 -10q26 -19 68 -31q57 -18 129 -22q102 -6 187 11q58 12 97 34q21 12 32 26q7 10 7 23v232v7zM511 504q1 0 3 0.5t3.5 0.5t2.5 1q50 11 151 34.5t152 34.5l90 21q20 5 25 23q3 14 -4.5 24.5t-22.5 13.5q-65 15 -194.5 45t-194.5 45q-10 3 -20 0q-54 -12 -161 -37
q-153 -35 -229 -53q-26 -6 -26 -31q0 -24 26 -30l367 -85q16 -3 32 -7zM931 -44q-6 2 -10 3q-21 6 -33 24.5t-10 41.5q5 45 25 82q7 13 18 24q17 18 34 0q11 -12 20 -27q18 -33 23 -75q1 -2 1 -4v-15q0 -2 -1 -3q-7 -37 -43 -48q-1 -1 -4.5 -1.5t-4.5 -0.5q-5 -1 -15 -1z
M908 338v135q0 13 7.5 21.5t19.5 9.5q13 2 23 -6.5t11 -21.5v-4v-271q0 -16 -12.5 -25.5t-28.5 -4.5q-20 8 -20 30v137z" />
    <glyph glyph-name="dianshangxuqiu" unicode="&#xe650;" horiz-adv-x="1026" 
d="M879 852l-8 13h-717l-5 -13q-6 -6 -28.5 -42t-52 -97.5t-50 -125.5t-18 -131t38.5 -110q58 -73 140.5 -68t174.5 88q18 -18 30 -28t33.5 -25.5t46 -23t51.5 -7.5v0q89 0 154 84q92 -84 187 -84q77 0 128 64q37 43 41 110t-16.5 131t-49.5 125.5t-51.5 97.5t-28.5 42v0z
M892 223q-16 0 -25 -9t-9 -25v-204q0 -10 -8 -18t-17 -8h-640q-10 0 -18 8t-8 18v204q0 16 -9 25t-24 9t-23 -8.5t-8 -22.5v-205q0 -34 25 -59t60 -25h640q34 0 59 25t25 59v205q4 13 -3 22t-17 9v0zM892 223z" />
    <glyph glyph-name="more" unicode="&#xe656;" 
d="M321 830l-64 -63l381 -384l-384 -380l63 -64l449 444z" />
    <glyph glyph-name="licai-copy-copy" unicode="&#xe605;" 
d="M512 779q31 0 58.5 -3t58 -11.5t49 -27t18.5 -45.5q0 -30 -27 -62l-19 -24l26 -16q90 -56 151.5 -152t61.5 -166q0 -124 -102.5 -198t-274.5 -74t-274.5 74t-102.5 198q0 70 61.5 166t151.5 152l26 16l-19 24q-27 32 -27 62q0 27 18.5 45.5t49 27t58 11.5t58.5 3z
M519 823q-33 0 -68 -7t-70 -21t-57.5 -41t-22.5 -62q0 -39 32 -79q-95 -59 -160.5 -159t-75.5 -179q-11 -88 42 -161t152 -113t221 -40q123 0 220.5 38t151 109.5t44.5 163.5q-7 78 -74 179.5t-163 161.5q32 40 32 79q0 131 -196 131v0h-8zM520 826zM512 809q33 0 63 -3.5
t62.5 -12.5t52 -29t19.5 -49q0 -42 -21 -69l-19 -29l19 -12q97 -60 162.5 -163.5t65.5 -178.5q0 -133 -110 -213t-294 -80t-294 80t-110 213q0 75 65.5 178.5t162.5 163.5l23 15l-21 26q-23 29 -23 69q0 29 19.5 49t52 29t62.5 12.5t63 3.5zM512 838q-29 0 -56.5 -2t-60 -10
t-55.5 -21t-39 -36t-16 -54q0 -49 31 -87q-104 -65 -171 -173.5t-67 -191.5q0 -147 118 -234.5t316 -87.5t316 87.5t118 234.5q0 82 -69 192t-173 175q35 43 35 85q0 16 -4.5 31t-19 32.5t-38 30t-66.5 21t-99 8.5v0v0zM512 838zM535 324h-46v-206h46v206zM535 324zM594 461
l-97 -97l32 -33l98 98zM594 461zM430 461l-33 -32l98 -98l32 33zM430 461zM627 256h-230v-46h230v46zM627 256zM627 347h-230v-45h230v45zM627 347z" />
    <glyph glyph-name="7" unicode="&#xe621;" horiz-adv-x="1025" 
d="M42 392l-42 48l514 453l211 -182v89h173v-237l127 -124l-45 -46l-146 142v201h-45v-165l-275 237zM898 -128h-282v340h-210v-340h-282v496h64v-431h155v340h336v-340h155v431h64v-496z" />
    <glyph glyph-name="renkou" unicode="&#xe683;" 
d="M688 87q-3 95 -61.5 169t-147.5 100q2 0 5.5 2.5l3.5 2.5q11 6 22 14q10 8 20 18q16 15 26 31q5 8 10 19q0 1 0.5 1.5t0.5 1.5q17 36 17 76q0 77 -54 131.5t-131 54.5v0v0q-77 0 -131.5 -54.5t-54.5 -131.5q0 -54 29 -98.5t76 -67.5q-89 -26 -147 -100t-61 -169v-0.5v-1
v-0.5v0q0 -6 2 -11q7 -14 23 -14t23 15q1 2 2 8v1v1.5v1.5v1v12t1 6h-1q11 100 93 163l1 0.5t2 1.5v-1q47 36 104 45q1 0 2 1q9 1 16 2h16l2 0.5t3 0.5q10 0 23 -2v0q85 -8 145.5 -67.5t70.5 -143.5h-1q1 -4 1 -6v-12l-0.5 -1t-0.5 -1.5t0.5 -1.5l0.5 -1q1 -5 2 -8
q7 -15 23 -15t22 14q3 5 3 11v0v0.5v1v0.5zM263 522.5q0 56.5 40 96.5t96 40t96 -40t40 -96.5t-40 -96.5t-96.5 -40t-96 40t-39.5 96.5zM920 81q-3 95 -61 169t-147 100q47 23 76 67.5t29 98.5q0 77 -54.5 131t-130.5 55v-1q-10 -1 -16.5 -7.5t-6.5 -16.5t6.5 -16.5
t16.5 -7.5v0h1h1v0v0q55 -2 94 -41.5t39 -95.5q0 -52 -35 -94t-86 -49v0q-9 -2 -16 -8q-10 -9 -10 -22q0 -14 12 -24q9 -7 19 -7v0h1q8 -1 16 -3h1.5h0.5q57 -10 104 -45v1q1 -1 2 -1.5l1 -0.5q82 -63 93 -163h-1q1 -5 1 -6v-12v-1v-1.5v-1.5v-2q1 -5 2 -7q7 -15 23 -15
t23 14q2 5 2 10v1v0.5v1v0.5zM651 312v0v0v0z" />
    <glyph glyph-name="diya" unicode="&#xe61c;" horiz-adv-x="1280" 
d="M373 542q-8 0 -14.5 6.5t-6.5 14.5v2q0 8 6.5 14.5t14.5 6.5h63v65q0 8 6 14.5t15 6.5h1q9 0 15.5 -6.5t6.5 -14.5v-65h31q9 0 15 -6.5t6 -14.5v-2q0 -8 -6 -14.5t-15 -6.5h-31v-180l37 20q7 4 16 2t12 -10q6 -7 3 -17q-2 -9 -10 -12l-58 -32v-150q0 -16 -7 -32
q-10 -23 -30 -36t-45 -13h-13q-9 0 -15 6t-6 15v1q0 9 6 15.5t15 6.5h13q15 0 26.5 11t11.5 26v125l-53 -28q-8 -5 -16.5 -2.5t-13.5 9.5q-4 10 -2 18t10 12l75 41v204h-63zM908 439q9 0 15.5 -6t6.5 -15v-2q0 -8 -6.5 -14.5t-15.5 -6.5h-61q6 -26 10 -42q31 -123 71 -236
q3 -8 -1 -16t-12 -11l-1 -1q-9 -3 -16.5 1t-10.5 13q-41 107 -73 239q-5 20 -12 53h-188v-128q0 -16 10 -26q13 -12 27 -12h60q9 0 15.5 -6t6.5 -15v-1q0 -9 -6.5 -15t-15.5 -6h-60q-33 0 -57 23.5t-24 57.5v307q0 14 6 32q10 22 30.5 35.5t44.5 13.5h246q9 0 15.5 -6.5
t6.5 -15.5v0q0 -9 -6.5 -15.5t-15.5 -6.5h-88q10 -79 29 -172h70zM709 138q10 0 16 -6.5t6 -15.5v-1q0 -9 -6 -15t-16 -6h-110q-9 0 -15.5 6t-6.5 15v1q0 9 6.5 15.5t15.5 6.5h110zM765 609v2h-114q-15 0 -27 -11q-10 -10 -10 -26v-135h178q-13 67 -27 170zM649 -127
q-142 0 -264 73q-12 8 -16 22t4 26.5t22 16t27 -3.5q104 -63 227 -63q89 0 170.5 35t140.5 93.5t94 140t35 171t-35 171t-94 140t-140.5 93.5t-170.5 35t-170.5 -35t-140.5 -93.5t-94 -140t-35 -171.5q0 -130 71 -239q8 -13 5 -27.5t-15 -22.5t-26.5 -5t-22.5 16
q-83 126 -83 278q0 103 39 196t111 165.5t165.5 111t195.5 38.5t195.5 -38.5t166 -111t111 -165.5t38.5 -195.5t-38.5 -195.5t-111 -165.5t-166 -111t-195.5 -38.5v0z" />
    <glyph glyph-name="chengguozhuanhua" unicode="&#xe936;" 
d="M955.5 792.5q-4.5 3.5 -9.5 0.5l-876 -448q-6 -3 -5.5 -9t6.5 -8l293 -93q5 -1 9 2l406 366l-324 -384q-3 -3 -1.5 -8t5.5 -6l326 -99q1 -1 2 -1q3 0 5 1q3 2 4 6l163 671q1 6 -3.5 9.5zM555 134l-90 27q-5 2 -8.5 -1t-3.5 -7v-170q0 -7 6 -9h3q5 0 8 4l89 142q3 4 1.5 8
t-5.5 6z" />
    <glyph glyph-name="jingyingzhibiao" unicode="&#xe678;" horiz-adv-x="1037" 
d="M181.5 62q45.5 0 78 32.5t32.5 78.5v220q0 46 -32.5 78.5t-78 32.5t-78 -32.5t-32.5 -78.5v-220q0 -46 32.5 -78.5t78 -32.5zM115 393q0 28 19.5 47t47 19t47 -19t19.5 -47v-220q0 -28 -19.5 -47.5t-47 -19.5t-47 19.5t-19.5 47.5v220zM844 62q46 0 78.5 32.5t32.5 78.5
v397q0 45 -32.5 77.5t-78.5 32.5t-78 -32.5t-32 -77.5v-397q0 -46 32 -78.5t78 -32.5zM778 570q0 27 19.5 46.5t47 19.5t46.5 -19.5t19 -46.5v-397q0 -28 -19 -47.5t-46.5 -19.5t-47 19.5t-19.5 47.5v397zM513 62q46 0 78 32.5t32 78.5v573q0 46 -32 78.5t-78 32.5
t-78.5 -32.5t-32.5 -78.5v-573q0 -46 32.5 -78.5t78.5 -32.5zM447 746q0 28 19 47t46.5 19t47 -19t19.5 -47v-573q0 -28 -19.5 -47.5t-47 -19.5t-46.5 19.5t-19 47.5v573zM999 -26h-972q-9 0 -15.5 -6.5t-6.5 -15.5t6.5 -15.5t15.5 -6.5h972q9 0 15.5 6.5t6.5 15.5
t-6.5 15.5t-15.5 6.5z" />
    <glyph glyph-name="lujing" unicode="&#xe600;" 
d="M310 341q-47 0 -80.5 -33t-33.5 -80v-228h57v227q0 24 16.5 40.5t40.5 16.5h228q47 0 80 33.5t33 80.5v143h143l-171 227l-171 -227h142v-143q0 -23 -16.5 -40t-40.5 -17h-227z" />
    <glyph glyph-name="icon-rank" unicode="&#xe642;" 
d="M546 1h-452q-12 0 -21 -9t-9 -21v-4q0 -13 9 -21.5t21 -8.5h452q12 0 21 8.5t9 21.5v4q0 12 -9 21t-21 9zM927 138l-351 326l38 38q13 -3 26 -3q45 0 77 32t32.5 76.5t-30.5 74.5l-119 120q-30 30 -73 30q-46 0 -78 -32q-21 -21 -28 -48.5t0 -55.5l-221 -221q-13 3 -26 3
q-45 0 -77 -32q-32 -31 -32.5 -75.5t30.5 -75.5l119 -119q30 -30 73 -30q46 0 78 32q20 21 27.5 48.5t0.5 54.5l41 40l325 -352q32 -32 76 -32q41 0 69 28l28 28q29 29 27.5 71.5t-32.5 73.5zM889 35l-28 -28q-10 -11 -26 -11q-19 0 -33 14l-325 352q-17 19 -42 19h-1
q-25 0 -43 -17l-40 -41q-24 -23 -15 -56q6 -27 -13 -47q-15 -15 -36 -15q-19 0 -31 13l-119 119q-13 13 -12.5 33t14.5 34q14 15 35 15q6 0 11 -2q7 -1 15 -1q25 0 42 17l221 221q24 24 15 57q-6 27 13 47q15 14 36 14q18 0 31 -12l119 -120q13 -13 12.5 -33t-14.5 -34
t-35 -14q-6 0 -11 1q-7 2 -15 2q-25 0 -42 -18l-39 -38q-18 -18 -17.5 -43.5t19.5 -42.5l351 -325q13 -13 14 -31t-11 -29v0z" />
    <glyph glyph-name="leixing" unicode="&#xe601;" 
d="M239 418q99 0 169 70t70 169t-70 169t-169 70t-169 -70t-70 -169t70 -169t169 -70zM239 555q-42 0 -72 30t-30 72t30 72t72 30t72 -30t30 -72t-30 -72t-72 -30zM785 418q99 0 169 70t70 169t-70 169t-169 70t-169 -70t-70 -169t70 -169t169 -70zM785 555q-42 0 -72 30
t-30 72t30 72t72 30t72 -30t30 -72t-30 -72t-72 -30zM239 -128q99 0 169 70t70 169t-70 169t-169 70t-169 -70t-70 -169t70 -169t169 -70zM239 9q-42 0 -72 30t-30 72t30 72t72 30t72 -30t30 -72t-30 -72t-72 -30zM785 -128q99 0 169 70t70 169t-70 169t-169 70t-169 -70
t-70 -169t70 -169t169 -70zM785 9q-42 0 -72 30t-30 72t30 72t72 30t72 -30t30 -72t-30 -72t-72 -30z" />
    <glyph glyph-name="yanse" unicode="&#xe6d4;" 
d="M954 518q-6 6 -13 6q-15 0 -36 -20l-342 -332q-12 -12 -60 -90l-8 -12l12 7q79 49 92 61l341 331q32 31 14 49zM741 415.5q0 -20.5 -14.5 -35.5t-35.5 -15t-35.5 15t-14.5 35.5t14.5 35t35.5 14.5t35.5 -14.5t14.5 -35zM215 240q-21 0 -35.5 14.5t-14.5 35.5t14.5 35.5
t35.5 14.5t35.5 -14.5t14.5 -35.5t-14.5 -35.5t-35.5 -14.5zM290 415.5q0 20.5 15 35t35.5 14.5t35 -14.5t14.5 -35t-14.5 -35.5t-35 -15t-35.5 15t-15 35.5zM465 465.5q0 20.5 15 35t35.5 14.5t35.5 -14.5t15 -35t-15 -35.5t-35.5 -15t-35.5 15t-15 35.5zM853 296
q-9 -57 -38.5 -110.5t-74 -96t-107.5 -68.5t-133 -26q-58 0 -107 20q-46 19 -52 40q-2 5 -5 18q-10 39 -20 56q-22 37 -64 37q-11 0 -23 -3q-19 -4 -37 -4q-67 0 -69 51q-2 83 28.5 151.5t84 113.5t119 73t138.5 36q20 2 42 2q87 0 153 -26q11 -4 39 -18q33 -16 63 -48
l30 53q-32 31 -67 48q-31 15 -43 20q-77 30 -175 30q-25 0 -49 -2q-179 -21 -296 -130q-131 -121 -126 -305q2 -52 41 -82q34 -26 87 -26q24 0 50 6q6 1 10 1q9 0 14 -10t13 -39q3 -13 5 -20q15 -49 87 -78q60 -24 129 -24q82 0 156 30q70 29 126 81q54 50 88 115t43 135v7
v1v0q1 3 1 7z" />
    <glyph glyph-name="unie603" unicode="&#xe623;" 
d="M650 277q-3 1 -7 3.5t-10 9t-9 16.5t-2.5 27.5t7.5 38.5q49 51 81 126t33 152q0 116 -67 181t-166 65t-165.5 -65t-66.5 -181q0 -78 32 -153t81 -126q8 -26 8 -42.5t-9 -28.5t-15.5 -16.5t-11.5 -6.5q-72 -26 -133 -58.5t-106 -76t-45 -84.5v-32q0 -41 37 -70.5t102 -44
t136 -21t157 -6.5q430 0 430 142v32q0 42 -45.5 85.5t-108.5 76t-137 57.5v0z" />
    <glyph glyph-name="xingye" unicode="&#xe611;" 
d="M845 661q31 0 53.5 -21t22.5 -50v-431q0 -29 -22.5 -50t-53.5 -21h-666q-31 0 -53.5 21t-22.5 50v431q0 29 22.5 50t53.5 21h666zM845 715h-666q-54 0 -92.5 -36.5t-38.5 -88.5v-431q0 -52 38.5 -89t92.5 -37h666q54 0 92.5 37t38.5 89v431q0 52 -38.5 88.5t-92.5 36.5v0
zM266 211q-11 0 -19 8t-8 19v273q0 11 8 19t19 8t19 -8t8 -19v-273q0 -11 -8 -19t-19 -8zM758 211q-11 0 -19 8t-8 19v273q0 11 8 19t19 8t19 -8t8 -19v-273q0 -11 -8 -19t-19 -8zM621 743q-11 0 -19 8t-8 19q0 9 -13 18t-28 9h-80q-15 0 -29 -9t-14 -17q0 -12 -8 -20
t-19 -8t-19 8t-8 20q0 33 30.5 57t66.5 24h80q36 0 65.5 -24t29.5 -58q0 -11 -8 -19t-19 -8z" />
    <glyph glyph-name="255" unicode="&#xe658;" 
d="M652 741q-101 0 -173.5 -72t-72.5 -174q0 -73 41 -135l-104 -104l-112 112l-72 -75l111 -110l-113 -112l73 -73l112 113l113 -113l74 71l-114 114l105 105q60 -39 132 -39q102 0 174 72t72 174t-72 174t-174 72v0zM652 352q-59 0 -101 42t-42 101.5t42 101.5t101.5 42
t101.5 -42t42 -101.5t-42 -101.5t-102 -42v0z" />
    <glyph glyph-name="wagnz" unicode="&#xe65f;" 
d="M474 409q-8 0 0 0q-13 0 -22 16l-48 135l-65 27q-4 0 -7.5 3.5t-3.5 7.5l-21 70q-9 17 11 27q17 9 27 -11l21 -59l70 -32q4 0 7.5 -3.5t3.5 -7.5l38 -113l48 48l6 86q0 3 2.5 8.5t2.5 8.5l108 86q19 10 27 -6q10 -19 -5 -26l-98 -87l-5 -86q0 -11 -5 -11l-76 -75
q-5 -6 -16 -6zM194 199q-38 0 -54 5q-76 9 -92 49q-5 10 -6 21t2.5 21t7 18t9.5 15.5t8.5 10.5t5.5 6q8 8 19 8t19 -8t8 -19t-8 -19v0q-25 -24 -16 -32q0 -2 3 -5t20 -8t42.5 -7.5t78 1t120.5 13.5q269 38 442 124q1 1 11 5t16 8t11 9q12 8 24.5 17t17 12t6.5 3v0
q6 6 13 15.5t9 11.5q-1 0 -13 2.5t-25 2.5q-12 0 -19.5 7.5t-7.5 20t7.5 19.5t19.5 7q70 0 86 -37q8 -23 -10 -60q-4 -4 -9 -10t-8 -8.5t-5 -2.5q-22 -22 -54 -43q-5 -3 -18.5 -11t-19.5 -11q-168 -90 -458 -129q-108 -22 -183 -22v0zM415 21q-11 0 -11 5q-8 5 -8 14t8 13
l65 81q0 6 10 6l49 16l38 70q10 11 16 11q4 0 10 -3.5t6 -7.5l86 -140q10 -20 -5 -27q-19 -10 -27 5l-65 108l-27 -43q0 -4 -3 -7.5t-7 -3.5l-54 -16l-65 -76q-3 0 -8.5 -2.5t-7.5 -2.5v0zM501 -6q-112 0 -205 59q-95 61 -135 157q-4 8 -0.5 18t11.5 14t18 0.5t14 -11.5
q41 -85 121 -136.5t176 -51.5q87 0 162 43.5t118.5 118t43.5 161.5v16q0 12 7 19.5t19.5 7.5t19.5 -7.5t7 -19.5v-16q0 -156 -107 -264q-117 -108 -270 -108zM150 345q-12 0 -19 7t-7 20q0 156 107 264q53 53 122.5 83t142.5 30q103 0 204 -59q95 -61 135 -157q4 -8 1 -18
t-11.5 -14t-18.5 -0.5t-14 11.5q-40 84 -119 133.5t-172 49.5q-88 0 -162.5 -43.5t-118 -118t-43.5 -161.5q0 -9 -7.5 -18t-19.5 -9z" />
    <glyph glyph-name="hiiniconxingzhi011bi1" unicode="&#xe66d;" 
d="M512 472q90 69 203 55l10 -3v11q0 46 -16 86v0v0q-15 39 -45 71l-1 1q-30 32 -68 48l-1 1q-40 16 -82 16q-40 0 -81 -16v0q-39 -17 -68 -49q-31 -32 -47 -72t-16 -86v-11l10 3q113 14 202 -55v0zM791 503v0q13 -6 27 -14q50 -30 83 -76q34 -47 49 -103q14 -55 6 -115
q-6 -58 -34 -109.5t-73 -87.5q-44 -35 -98 -50q-52 -15 -110 -8q-53 7 -104 37q-7 4 -25 17q-15 -11 -25 -17l-3 -1q-49 -29 -102 -36q-56 -7 -109 8q-52 14 -98 50q-44 36 -73 88q-27 51 -34 109q-7 57 7 115q14 56 49 103q42 59 109 91q-2 16 -2 32q0 58 22 113
q20 52 60 95t92 64q50 23 107 23t108 -23l1 -1q51 -21 90 -63l2 -2q38 -42 58 -93q22 -53 22 -114q0 -14 -2 -32v0zM626 265v0q5 -56 -8 -109q-15 -57 -49 -103l-6 -7q5 -4 9 -6q35 -22 79 -28q40 -7 82 5q40 11 74 38q71 57 82 148q5 45 -6 87q-11 44 -36.5 79t-62.5 57v0
q-6 4 -9 5l-3 -9l-1 -3q-20 -51 -58 -91t-87 -63v0zM558 244v0q-46 -9 -92 0q-1 -35 7 -68q11 -44 37 -78l2 -4l3 4q26 35 36 78q9 32 7 68v0zM399 265v0q-49 23 -85 61q-40 42 -61 96l-4 9l-7 -3l-2 -2q-37 -22 -62 -57q-26 -36 -36 -78q-12 -43 -6 -87t27 -82
q21 -39 55 -66t74 -38q42 -12 83 -6q42 6 76 27l2 1q5 3 9 6l-6 7q-34 46 -49 104q-14 52 -8 108v0zM610 337v0q68 37 98 112l1 1l1 4l-4 1q-76 10 -142 -33q29 -41 46 -85v0zM315 454v0q16 -43 48 -77q21 -22 52 -40q17 45 47 84q-66 44 -143 34l-4 -1v0zM481 315v0
q31 -5 63 0q-12 31 -32 58q-20 -28 -31 -58v0z" />
    <glyph glyph-name="renshengjieduan" unicode="&#xe61b;" 
d="M609 720q-13 0 -22.5 -9.5t-9.5 -22.5v-224h-224q-13 0 -22.5 -9.5t-9.5 -22.5v-160h-225q-13 0 -22.5 -9.5t-9.5 -22.5v-256q0 -13 9.5 -22.5t22.5 -9.5h831q13 0 22.5 9.5t9.5 22.5v128v64v64v64v128v64v192q0 13 -9.5 22.5t-22.5 9.5h-318zM576 816h384v-64h-384v64z
M320 560h224v-64h-224v64zM64 368h224v-64h-224v64z" />
    <glyph glyph-name="qiche-copy" unicode="&#xe60f;" 
d="M966 516h-90q-6 0 -12 -3l-40 122q-10 50 -42.5 76t-79.5 26h-380q-50 0 -81.5 -28.5t-40.5 -73.5l-41 -123q-6 4 -12 4h-90q-10 0 -17.5 -7.5t-7.5 -17.5v-22q0 -10 7.5 -17.5t17.5 -7.5l34 -6q-17 -33 -17 -73l-12 -144v-12v-8v-173q0 -19 13 -32t31 -13h68q19 0 32 13
t13 32v55h585v-55q0 -19 13.5 -32t31.5 -13h68q19 0 32 13t13 32v173q0 3 -1 8q1 7 1 12l-13 144q0 40 -17 73l33 6q11 0 18 7.5t7 17.5v22q0 10 -7 17.5t-17 7.5zM230 541l30 80v1q1 8 3 12t8 10.5t8 9.5h466q2 -4 6 -8.5t5.5 -7t3.5 -6.5t3 -9l30 -82l12 -44
q-2 -23 -25.5 -40t-48.5 -17h-439q-25 0 -48 17t-25 40zM251 165q-28 0 -48 20t-20 48t20 47.5t48 19.5t47.5 -19.5t19.5 -47.5t-19.5 -48t-47.5 -20zM628 215v0q0 -8 -6 -14t-14 -6h-190q-8 0 -14 6t-6 14v57q0 8 6 14t14 6h190q8 0 14 -6t6 -14v-57zM773 165q-28 0 -48 20
t-20 48t20 47.5t48 19.5t47.5 -19.5t19.5 -47.5t-19.5 -48t-47.5 -20z" />
    <glyph glyph-name="kequnnianling" unicode="&#xe6e7;" 
d="M352 352q-67 0 -113.5 46.5t-46.5 113.5t46.5 113.5t113.5 46.5t113.5 -46.5t46.5 -113.5t-46.5 -113.5t-113.5 -46.5zM352 608q-41 0 -68.5 -27.5t-27.5 -68.5t27.5 -68.5t68.5 -27.5t68.5 27.5t27.5 68.5t-27.5 68.5t-68.5 27.5zM512 90l-29 172l-77 26l20 61l115 -39
l35 -211zM192 90l-64 9l35 211l115 39l20 -61l-77 -26zM640 608h128v-64h-128v64zM640 480h256v-64h-256v64zM640 352h256v-64h-256v64zM640 224h256v-64h-256v64zM352 32h320v-64h-320v64zM1024 -32h-288v64h224v704h-896v-704h224v-64h-288v832h1024v-832z" />
    <glyph glyph-name="xiansuo" unicode="&#xe72c;" 
d="M612 70q-55 -13 -61 -14q-20 -4 -39 -7q-15 -2 -33 -3q-40 -2 -54 -2q-45 1 -83 16q-33 13 -54 36q-19 22 -25 49q-9 49 11 93q12 27 32 51q30 34 64 56q31 21 58 36q33 19 95 42q31 12 62 31q28 19 45 37q27 29 36 62q8 30 -6 60q-12 26 -30 42q-15 14 -35 22
q-25 10 -51 12q-31 1 -40 0q-37 -2 -79 -13q-5 -1 -4 -6q3 -31 2 -46q-2 -35 -21 -67q-13 -23 -30 -39q-36 -33 -83 -42q-22 -5 -43 -3q-39 3 -74 23q-22 12 -42 35q-22 25 -32 60q-8 27 -7 55q1 30 13 59q13 30 38 55q23 22 55 35q21 8 49 10q39 4 78 -13q32 -13 60 -44
q6 -7 12 -17q2 -3 7 -2q44 10 60 13q9 1 42 4q18 1 26 1q53 -3 90 -19t63 -46q24 -28 37 -70q7 -21 4 -49q-3 -32 -19 -63q-10 -21 -29 -42q-28 -33 -74 -60q-33 -18 -72 -33q-14 -5 -41 -17q-42 -18 -83 -46q-32 -21 -56 -48q-25 -29 -32 -57q-6 -30 5 -54q7 -14 26 -24
q24 -13 52 -16q31 -3 36 -2q16 0 53 3q34 4 105 21q5 1 6 2.5t1 7.5q1 29 14 60q15 33 44 58q33 29 74 36q21 4 32 4q56 1 100 -31q30 -22 48 -54q14 -25 19 -53q3 -21 1 -44q-3 -34 -19 -63q-15 -28 -42 -51q-30 -25 -70 -34q-24 -5 -52 -2q-32 3 -60 18q-32 16 -53 44
q-16 20 -27 47zM257 749q-46 0 -78 -32t-32 -77q0 -47 32 -78.5t78 -32.5q45 0 76.5 31.5t33.5 75.5q1 47 -32 80.5t-78 32.5zM770 236q-45 1 -77 -30.5t-33 -74.5q-2 -48 30.5 -81t78.5 -33t78 31.5t32 77.5q1 45 -31 77.5t-78 32.5z" />
    <glyph glyph-name="tubiao-" unicode="&#xe64a;" 
d="M385 807h251v-46h-251v46zM886 808h-137v-47h137q24 0 41 -17t17 -41v-104h-860v104q0 24 17 41t41 17v0h137v47h-137v0q-43 0 -73.5 -30.5t-30.5 -74.5v-705q0 -43 30.5 -73.5t73.5 -30.5h744q43 0 74 30.5t31 73.5v705q0 44 -31 74.5t-74 30.5v0zM886 -60h-744
q-24 0 -41 17t-17 41v0v555h860v-555q0 -24 -17 -41t-41 -17v0zM331 679q-14 0 -23.5 10t-9.5 24v144v0q0 14 9.5 24t23.5 10t24 -10t10 -24v-144q0 -14 -10 -24t-24 -10v0zM697 678q-14 0 -23.5 10t-9.5 24v144v1q0 14 9.5 24t23.5 10t24 -10t10 -24v-144q0 -14 -10 -24
t-24 -10v-1zM646 330h-66q-7 0 -11.5 4.5t-4.5 10.5v66v1q0 6 4.5 10.5t10.5 4.5h1h66q6 0 10.5 -4.5t4.5 -10.5v0v-66q0 -7 -4.5 -11t-10.5 -4v-1zM842 330h-66q-6 0 -10.5 4.5t-4.5 10.5v66v1q0 6 4.5 10.5t10.5 4.5v0h66q7 0 11 -4.5t4 -10.5v0v-66q0 -7 -4 -11t-11 -4
v-1zM252 196h-66q-6 0 -10.5 4.5t-4.5 10.5v67q0 6 4.5 10.5t10.5 4.5h66v0q7 0 11 -4.5t4 -10.5v-66q0 -7 -4 -11t-11 -4v-1zM449 196h-66q-6 0 -10.5 4.5t-4.5 10.5v0v67q0 6 4.5 10.5t10.5 4.5h66v0q6 0 10.5 -4.5t4.5 -10.5v-66q0 -6 -4.5 -10.5t-10.5 -4.5v-1zM646 196
h-66q-7 0 -11.5 4.5t-4.5 10.5v67q0 6 4.5 10.5t11.5 4.5h66q6 0 10.5 -4.5t4.5 -10.5v-66q0 -7 -4.5 -11t-10.5 -4v-1zM842 196h-66q-6 0 -10.5 4.5t-4.5 10.5v67q0 6 4.5 10.5t10.5 4.5h66q7 0 11 -4.5t4 -10.5v-66q0 -6 -4.5 -10.5t-10.5 -4.5v-1zM252 63h-66
q-6 0 -10.5 4.5t-4.5 11.5v66q0 6 4.5 10.5t10.5 4.5h66v0q7 0 11 -4.5t4 -10.5v-66v0q0 -7 -4 -11.5t-11 -4.5v0zM449 63h-66q-6 1 -10.5 5t-4.5 11v0v66q0 6 4.5 10.5t10.5 4.5h66v0q6 0 10.5 -4.5t4.5 -10.5v-66v0q0 -7 -4.5 -11.5t-10.5 -4.5v0zM646 63h-66
q-7 0 -11.5 4.5t-4.5 11.5v66q0 6 4.5 10.5t11.5 4.5h66q6 0 10.5 -4.5t4.5 -10.5v-66v0q0 -7 -4.5 -11.5t-10.5 -4.5v0z" />
    <glyph glyph-name="chuhang" unicode="&#xe7c4;" 
d="M856 444l-98 40l-62 122q-7 8 -7 12l-7 8q-19 20 -44.5 24t-49.5 -8l-170 -63q-22 -6 -29 -36l-14 -147q-3 -17 8 -32.5t28 -18.5h4q16 0 27.5 11t11.5 29l11 114l65 24q-21 -55 -29 -75q-11 -26 -10 -60t14 -63l-112 -285q-9 -21 -1.5 -43.5t26.5 -31.5q5 2 9.5 2t9 -1
t6.5 -1q37 0 47 35l84 206q108 -212 108 -217q17 -32 47 -32q11 0 25 8q20 12 26.5 35t-4.5 44q-3 7 -26 54t-59.5 119t-62.5 120l50 123l18 -36q2 -3 3.5 -6t4.5 -5l4.5 -3t5.5 -3t4 -3l112 -47q2 0 7.5 -2t7.5 -2q28 0 39 32q3 18 -5 35.5t-23 23.5zM667 665q35 0 60 25.5
t25 60.5t-25 60.5t-60 25.5t-60.5 -25.5t-25.5 -60.5t25.5 -60.5t60.5 -25.5zM474 268l-22 9q11 33 -3.5 61.5t-45 40.5t-60.5 -0.5t-44 -43.5l-21 8q-15 6 -30 0t-21 -21l-45 -119q-6 -15 1 -31.5t21 -21.5l197 -75q14 -5 28.5 3t20.5 24l45 119q6 15 0 28.5t-21 18.5z
M246 152l-16 6l62 162l15 -6zM398 363q24 -9 35.5 -31.5t3.5 -49.5l-123 47q12 25 36 34.5t48 -0.5zM384 100l-16 6l62 161l15 -6z" />
  </font>
</defs>
</svg>
